<?xml version="1.0" encoding="UTF-8"?>
<!DOCTYPE svg PUBLIC "-//W3C//DTD SVG 1.1//EN" "http://www.w3.org/Graphics/SVG/1.1/DTD/svg11.dtd">
<!-- Creator: CorelDRAW -->
<svg xmlns="http://www.w3.org/2000/svg" xml:space="preserve" width="2048px" height="2048px" style="shape-rendering:geometricPrecision; text-rendering:geometricPrecision; image-rendering:optimizeQuality; fill-rule:evenodd; clip-rule:evenodd"
viewBox="0 0 2048 2048"
 xmlns:xlink="http://www.w3.org/1999/xlink">
 <defs>
  <style type="text/css">
   <![CDATA[
    .fil2 {fill:none}
    .fil11 {fill:#073E57}
    .fil9 {fill:#0C4B68}
    .fil10 {fill:#408E0F}
    .fil5 {fill:#616161}
    .fil1 {fill:#689F38}
    .fil6 {fill:#7B7B7B}
    .fil0 {fill:#9CCC65}
    .fil3 {fill:#B69D6C}
    .fil4 {fill:#ECECEC}
    .fil7 {fill:#7CB342;fill-rule:nonzero}
    .fil8 {fill:#E53935;fill-rule:nonzero}
   ]]>
  </style>
   <clipPath id="id0">
    <path d="M1024 -0.0011811c565.541,0 1024,458.461 1024,1024 0,565.541 -458.461,1024 -1024,1024 -565.541,0 -1024,-458.461 -1024,-1024 0,-565.541 458.461,-1024 1024,-1024z"/>
   </clipPath>
 </defs>
 <g id="Layer_x0020_1">
  <metadata id="CorelCorpID_0Corel-Layer"/>
  <path class="fil0" d="M1024 -0.0011811c565.541,0 1024,458.461 1024,1024 0,565.541 -458.461,1024 -1024,1024 -565.541,0 -1024,-458.461 -1024,-1024 0,-565.541 458.461,-1024 1024,-1024z"/>
  <g style="clip-path:url(#id0)">
   <g id="_385668784">
    <g>
     <polygon id="_2840894561" class="fil1" points="1144.57,473.598 2280.45,1609.48 2282.26,1611.8 2283.88,1614.32 2285.29,1617.01 2286.47,1619.87 2287.42,1622.86 2288.11,1625.99 2288.53,1629.22 2288.68,1632.55 2288.68,1644.68 1152.8,508.799 1152.8,496.665 1152.65,493.339 1152.23,490.105 1151.53,486.982 1150.59,483.984 1149.41,481.131 1148,478.438 1146.38,475.921 "/>
     <polygon id="_284089720" class="fil1" points="1394.5,524.452 2530.38,1660.33 2531.66,1661.96 2532.86,1663.64 2533.98,1665.38 2535.01,1667.18 2535.96,1669.03 2536.82,1670.92 2537.59,1672.87 2538.27,1674.86 2538.85,1676.89 2539.33,1678.96 2539.71,1681.07 2539.99,1683.21 2540.15,1685.38 2540.21,1687.57 2540.21,2676.99 2540.15,2679.19 2539.99,2681.36 2539.71,2683.5 2539.33,2685.6 2538.85,2687.67 2538.27,2689.71 2537.59,2691.69 2536.82,2693.64 2535.96,2695.54 2535.01,2697.39 2533.97,2699.18 2532.85,2700.92 2531.66,2702.61 2530.38,2704.23 2529.03,2705.79 2527.6,2707.28 2526.11,2708.7 2524.56,2710.05 2522.93,2711.33 2521.25,2712.53 2519.51,2713.65 2517.71,2714.68 2515.86,2715.64 2513.97,2716.5 2512.02,2717.27 2510.03,2717.95 2508,2718.53 2505.93,2719.01 2503.82,2719.39 2501.68,2719.66 2499.51,2719.83 2497.32,2719.88 1822.45,2719.88 1820.25,2719.83 1818.08,2719.66 1815.94,2719.39 1813.83,2719.01 1811.76,2718.53 1809.73,2717.95 1807.74,2717.27 1805.8,2716.5 1803.9,2715.64 1802.05,2714.69 1800.25,2713.65 1798.51,2712.53 1796.83,2711.33 1795.21,2710.06 659.326,1574.17 660.949,1575.45 662.631,1576.65 664.372,1577.77 666.168,1578.8 668.017,1579.76 669.915,1580.62 671.861,1581.39 673.85,1582.06 675.882,1582.64 677.952,1583.13 680.058,1583.51 682.198,1583.78 684.368,1583.95 686.566,1584 1361.43,1584 1363.63,1583.94 1365.8,1583.78 1367.94,1583.5 1370.05,1583.12 1372.12,1582.64 1374.15,1582.06 1376.14,1581.39 1378.09,1580.61 1379.98,1579.75 1381.83,1578.8 1383.63,1577.77 1385.37,1576.65 1387.05,1575.45 1388.67,1574.17 1390.23,1572.82 1391.72,1571.4 1393.15,1569.9 1394.5,1568.35 1395.77,1566.73 1396.97,1565.04 1398.09,1563.3 1399.13,1561.5 1400.08,1559.66 1400.94,1557.76 1401.71,1555.81 1402.39,1553.82 1402.97,1551.79 1403.45,1549.72 1403.83,1547.61 1404.11,1545.47 1404.27,1543.31 1404.33,1541.11 1404.33,551.692 1404.27,549.494 1404.11,547.324 1403.83,545.184 1403.45,543.078 1402.97,541.008 1402.39,538.976 1401.71,536.986 1400.94,535.041 1400.08,533.143 1399.13,531.293 1398.09,529.498 1396.98,527.757 1395.78,526.074 "/>
    </g>
    <path id="_385669000" class="fil1" d="M1361.43 508.799c23.5914,0 42.8929,19.3099 42.8929,42.8929l0 989.415c0,23.5819 -19.311,42.8941 -42.8929,42.8941l-674.868 0c-23.5819,0 -42.8929,-19.3028 -42.8929,-42.8941l0 -989.415c0,-23.5914 19.3016,-42.8929 42.8929,-42.8929l208.635 0 0 -12.1347c0,-17.9669 12.6,-32.6658 28.0004,-32.6658l201.597 0c15.4004,0 28.0004,14.7083 28.0004,32.6658l0 12.1347 208.636 0z"/>
   </g>
  </g>
  <path class="fil2" d="M1024 -0.0011811c565.541,0 1024,458.461 1024,1024 0,565.541 -458.461,1024 -1024,1024 -565.541,0 -1024,-458.461 -1024,-1024 0,-565.541 458.461,-1024 1024,-1024z"/>
  <path class="fil3" d="M686.566 508.799l674.868 0c23.5914,0 42.8929,19.311 42.8929,42.8929l0 989.415c0,23.5831 -19.311,42.8929 -42.8929,42.8929l-674.868 0c-23.5819,0 -42.8929,-19.3016 -42.8929,-42.8929l0 -989.415c0,-23.5914 19.3016,-42.8929 42.8929,-42.8929z"/>
  <polygon class="fil4" points="688.473,553.598 688.473,1539.2 1359.53,1539.2 1359.53,553.598 "/>
  <rect class="fil5" x="859.572" y="617.006" width="329.225" height="11.1689"/>
  <path class="fil6" d="M859.572 542.399l35.6303 0 0 -45.7347c0,-17.9669 12.5988,-32.6658 27.9992,-32.6658l201.598 0c15.3992,0 27.9992,14.7083 27.9992,32.6658l0 45.7347 35.6315 0 0 78.3993 -328.858 0 0 -78.3993z"/>
  <path class="fil7" d="M800 1292.8c-12.3709,0 -22.4008,10.0287 -22.4008,22.3996 0,12.3721 10.0299,22.4008 22.4008,22.4008l448 0c12.3709,0 22.4008,-10.0287 22.4008,-22.4008 0,-12.3709 -10.0299,-22.3996 -22.4008,-22.3996l-448 0z"/>
  <path class="fil8" d="M800 1404.8c-12.3709,0 -22.4008,10.0299 -22.4008,22.4008 0,12.3709 10.0299,22.4008 22.4008,22.4008l448 0c12.3709,0 22.4008,-10.0299 22.4008,-22.4008 0,-12.3709 -10.0299,-22.4008 -22.4008,-22.4008l-448 0z"/>
  <ellipse class="fil9" cx="1024" cy="965.666" rx="268.333" ry="268.333"/>
  <path class="fil10" d="M895.587 730.003c32.3965,-17.6906 68.8406,-28.8981 107.589,-31.8721 6.0756,-0.425197 12.2067,-0.64252 18.3886,-0.64252 39.724,0 77.1945,9.15827 110.854,24.9992l-9.3815 1.39134 -25.4988 -3.81024 -18.124 12.0532 -12.7819 14.1673 -46.4351 4.28622 -19.1811 -3.17008 -13.0878 20.6315 -38.2737 2.19449 -24.0307 -6.9567 -21.2894 11.7189 -46.2709 6.39922 -37.0583 10.774 -0.0826772 0c20.6929,-25.115 46.0217,-46.2674 74.6646,-62.1638zm136.997 -6.62245l26.615 -14.6433 17.0669 9.88111 -24.7524 18.7642 -23.55 2.42481 -10.6028 -6.96378 15.2232 -9.463zm-78.7264 2.11299l11.7189 4.92638 15.3945 -4.92638 8.3256 14.5595 -35.439 9.30119 -17.0669 -10.0276c0,0 16.65,-10.6866 17.0669,-13.8331z"/>
  <path class="fil11" d="M1230.05 795.728c38.9114,47.1945 62.2855,107.68 62.2855,173.625 0,42.9886 -9.94489,83.6493 -27.6402,119.829 -20.7319,23.5193 -46.5059,42.8067 -76.0595,56.0091l1.30984 -15.2327c38.4366,-37.5213 26.1614,-52.4658 61.5012,-77.6694l15.8268 -51.4985 -42.1819 -15.3272c-14.7685,-11.6055 -17.4732,-19.1457 -35.7118,-17.915 -8.14253,-0.640158 -16.2862,-1.28622 -24.4299,-1.92756 -6.88819,0.198425 -13.7705,0.400394 -20.6599,0.598819 -5.54056,2.72126 -11.087,5.4378 -16.6288,8.15906 -11.6811,-9.01772 -9.7252,-9.69804 -24.3236,-11.1709 -0.680315,-5.43544 -1.36299,-10.8709 -2.04213,-16.3063 -4.30394,0.943702 -8.61142,1.89331 -12.9154,2.83583 -1.94646,3.2941 -3.89292,6.58229 -5.83937,9.87639 -9.04135,-20.4945 -10.3075,-15.111 7.96182,-28.2898 6.30355,1.59685 12.6059,3.19252 18.9095,4.78819 3.12874,-0.582284 6.25867,-1.16339 9.38859,-1.74567 2.00551,-35.2713 28.0217,-55.9264 54.0461,-75.7926 7.15512,-0.390945 14.3043,-0.775985 21.4595,-1.16575 -0.00590552,-3.54331 -0.00944883,-7.08308 -0.0153543,-10.6264 -21.7961,-15.2622 -28.3051,-18.2138 -44.4178,-39.4666 -36.2351,6.73819 -44.2099,-17.3043 -43.7729,23.4921 -8.05985,-0.0531496 -16.1126,-0.102756 -24.1725,-0.157087 -1.4811,-4.67363 -2.96221,-9.34253 -4.44449,-14.015 22.9973,-9.86457 17.1626,-7.6252 18.3083,-34.0902 6.36497,1.32402 12.7358,2.65276 19.1008,3.97677 0.516142,3.65788 1.03228,7.31575 1.54961,10.9724 8.56418,1.83543 15.4181,3.20551 24.1323,4.0878 3.33425,-2.61142 6.6626,-5.22756 9.99686,-7.84016 -8.88662,-12.111 -20.041,-19.4953 -35.8736,-25.7032 -0.424016,-3.15945 -0.852757,-6.31772 -1.27677,-9.47599 33.5044,0.305906 40.3595,8.03032 56.1437,37.6996 10.7988,6.62835 21.6012,13.2555 32.4,19.8839l7.57678 0.920079 6.85985 -17.5477 13.6488 -3.79016z"/>
  <path class="fil11" d="M998.757 1232.5c-136.619,-14.3788 -243.091,-129.932 -243.091,-270.362 0,-20.687 2.32205,-40.8296 6.69922,-60.1949 3.94016,-9.1441 8.43072,-17.9965 13.4244,-26.5134l17.0858 -3.91772 -17.1614 13.5225 13.4681 8.87717 26.7012 0 39.7134 -7.10079c8.33623,13.539 16.6784,27.0815 25.0146,40.6193 0,50.6268 3.71457,43.063 34.0878,84.2528 1.92638,0 3.84803,0 5.77559,0 0,-5.44843 0,-10.8921 0,-16.3406 22.1587,15.3414 77.9068,33.9473 86.4851,59.1012 -5.30433,11.048 -10.6028,22.0961 -15.9071,33.1441 5.77087,10.6973 11.537,21.3957 17.3067,32.0941 0,0 10.9465,36.9862 10.9465,38.4626 0,1.40197 -10.9465,44.2382 -10.9465,44.2382l2.51811 28.8591c-4.0252,0.479528 -8.06103,0.912993 -12.1205,1.25787z"/>
  <path class="fil10" d="M1231.14 795.077c38.2323,46.3701 61.1965,105.797 61.1965,170.589 0,42.2363 -9.77127,82.1859 -27.1571,117.734 -20.3693,23.1083 -45.6922,42.0579 -74.7284,55.03l1.28622 -14.9669c37.7634,-36.8646 25.7044,-51.5481 60.4252,-76.3111l15.5504 -50.5973 -41.4437 -15.0591c-14.511,-11.4024 -17.1673,-18.8114 -35.0882,-17.602 -7.99961,-0.629528 -16.0016,-1.26378 -24.0024,-1.89449 -6.76772,0.194882 -13.5295,0.393307 -20.2984,0.589371 -5.4437,2.67284 -10.8933,5.34213 -16.337,8.01615 -11.478,-8.86064 -9.55631,-9.52914 -23.8996,-10.976 -0.667323,-5.34095 -1.33937,-10.6807 -2.00669,-16.0205 -4.22835,0.925985 -8.46024,1.85906 -12.6886,2.78622 -1.91221,3.23504 -3.82559,6.46654 -5.7378,9.70276 -8.88308,-20.1366 -10.1268,-14.8465 7.82245,-27.7949 6.19371,1.56851 12.3862,3.13701 18.5788,4.70552 3.07441,-0.572835 6.15,-1.14449 9.2256,-1.71614 1.97008,-34.6548 27.5303,-54.9485 53.1012,-74.4674 7.02875,-0.383859 14.0539,-0.761812 21.0827,-1.14567 -0.00472441,-3.48071 -0.00944883,-6.95788 -0.0141732,-10.4398 -21.4158,-14.9953 -27.8114,-17.8961 -43.6418,-38.7768 -35.6008,6.62008 -43.4363,-17.002 -43.0075,23.0823 -7.91812,-0.0531496 -15.8303,-0.101575 -23.7484,-0.155906 -1.4563,-4.59095 -2.91142,-9.17835 -4.36772,-13.7693 22.5957,-9.69213 16.8626,-7.49174 17.9882,-33.4937 6.25394,1.30039 12.5126,2.60551 18.7665,3.90709 0.507874,3.5941 1.01457,7.18701 1.52244,10.7811 8.41418,1.80236 15.1488,3.15 23.7095,4.01575 3.27638,-2.56536 6.54686,-5.13544 9.82324,-7.70197 -8.7319,-11.9008 -19.6902,-19.1551 -35.2465,-25.2544 -0.415748,-3.10394 -0.838583,-6.20788 -1.25433,-9.31064 32.9185,0.301181 39.6544,7.88977 55.1611,37.0406 10.6099,6.5126 21.2244,13.024 31.8343,19.5366l7.44449 0.903544 6.73938 -17.2406 13.4102 -3.7252z"/>
  <path class="fil10" d="M995.589 1232.5c-134.838,-14.1921 -239.922,-128.238 -239.922,-266.836 0,-20.4177 2.29252,-40.2981 6.61182,-59.4095 3.88937,-9.02599 8.32087,-17.7614 13.2496,-26.1685l16.8638 -3.86693 -16.9382 13.3465 13.2921 8.76142 26.3528 0 39.1949 -7.00867c8.22757,13.363 16.461,26.7295 24.6886,40.0902 0,49.9666 3.66733,42.5008 33.6437,83.1544 1.90158,0 3.79843,0 5.7,0 0,-5.37756 0,-10.7504 0,-16.128 21.8705,15.1417 76.891,33.5044 85.3572,58.3311 -5.23465,10.9039 -10.4634,21.8067 -15.698,32.7107 5.69528,10.5591 11.3858,21.1181 17.0811,31.6772 0,0 10.8024,36.5044 10.8024,37.9607 0,1.38307 -10.8024,43.6607 -10.8024,43.6607l2.48504 28.4823c-3.97323,0.474804 -7.95709,0.902363 -11.9622,1.24252z"/>
 </g>
</svg>
